<?xml version="1.0" encoding="UTF-8"?><svg id="Layer_2" xmlns="http://www.w3.org/2000/svg" xmlns:xlink="http://www.w3.org/1999/xlink" viewBox="0 0 114.24 162"><defs><style>.cls-1{fill:url(#linear-gradient-2);}.cls-2{fill:url(#linear-gradient-3);}.cls-3{fill:url(#linear-gradient);}</style><linearGradient id="linear-gradient" x1="0" y1="81" x2="114.24" y2="81" gradientTransform="matrix(1, 0, 0, 1, 0, 0)" gradientUnits="userSpaceOnUse"><stop offset="0" stop-color="#2b3990"/><stop offset="1" stop-color="#5895b9"/></linearGradient><linearGradient id="linear-gradient-2" x1="40.75" y1="8" x2="83.89" y2="8" xlink:href="#linear-gradient"/><linearGradient id="linear-gradient-3" x1="33.75" y1="154" x2="76.89" y2="154" xlink:href="#linear-gradient"/></defs><g id="Layer_1-2"><g><path class="cls-3" d="M112.37,85.22c-.1-.71-.34-1.43-.73-2.12l-4.7-8.14c-1.06-1.83-3.02-2.97-5.14-2.97h-31.61c-2.12,0-4.08,1.13-5.14,2.97l-4.7,8.14c-2.28,3.95,.57,8.9,5.14,8.9h26.6l-9.99,17.3c-1.79,3.09-5.09,5-8.66,5h-26.91c-3.57,0-6.87-1.91-8.66-5l-13.45-23.3c-1.79-3.09-1.79-6.91,0-10l13.45-23.3c1.79-3.09,5.09-5,8.66-5h38.45c7.7,0,12.51-8.33,8.66-15h0c-1.79-3.09-5.09-5-8.66-5H35c-3.57,0-6.87,1.91-8.66,5L1.34,76c-1.79,3.09-1.79,6.91,0,10l25,43.3c1.79,3.09,5.09,5,8.66,5h50c3.57,0,6.87-1.91,8.66-5l19.23-33.3c2.1-3.64,1.61-7.77-.52-10.78Z"/><path class="cls-1" d="M45.57,16h27.77c1.75,0,3.37-.76,4.22-1.99l5.72-8.29c1.77-2.57-.55-5.72-4.22-5.72h-27.51c-1.72,0-3.31,.73-4.17,1.93l-5.98,8.29c-1.85,2.57,.46,5.78,4.17,5.78Z"/><path class="cls-2" d="M72.06,146h-27.51c-1.72,0-3.31,.73-4.17,1.93l-5.98,8.29c-1.85,2.57,.46,5.78,4.17,5.78h27.77c1.75,0,3.37-.76,4.22-1.99l5.72-8.29c1.77-2.57-.55-5.72-4.22-5.72Z"/></g></g></svg>